<svg xmlns="http://www.w3.org/2000/svg"><symbol id="banned" viewBox="0 0 24 25"><path fill="none" stroke="#fff" stroke-linecap="round" stroke-linejoin="round" stroke-miterlimit="10" stroke-width="1.5" d="M12 22.759c5.52 0 10-4.48 10-10s-4.48-10-10-10-10 4.48-10 10 4.48 10 10 10zm6.9-17l-14 14"/></symbol><symbol id="check-bold" viewBox="0 0 24 25"><path fill="currentColor" d="M16.19 2.759H7.81C4.17 2.759 2 4.929 2 8.569v8.37c0 3.65 2.17 5.82 5.81 5.82h8.37c3.64 0 5.81-2.17 5.81-5.81v-8.38c.01-3.64-2.16-5.81-5.8-5.81zm.59 7.7l-5.67 5.67a.75.75 0 0 1-1.06 0l-2.83-2.83a.754.754 0 0 1 0-1.06c.29-.29.77-.29 1.06 0l2.3 2.3 5.14-5.14c.29-.29.77-.29 1.06 0 .29.29.29.76 0 1.06z"/></symbol><symbol id="check" viewBox="0 0 24 25"><path fill="none" stroke="#fff" stroke-linecap="round" stroke-linejoin="round" stroke-width="1.5" d="M9 22.759h6c5 0 7-2 7-7v-6c0-5-2-7-7-7H9c-5 0-7 2-7 7v6c0 5 2 7 7 7z"/><path fill="none" stroke="#fff" stroke-linecap="round" stroke-linejoin="round" stroke-width="1.5" d="M7.75 12.759l2.83 2.83 5.67-5.66"/></symbol><symbol id="create-bold" viewBox="0 0 24 25"><path fill="currentColor" d="M16.19 2.759H7.81C4.17 2.759 2 4.929 2 8.569v8.37c0 3.65 2.17 5.82 5.81 5.82h8.37c3.64 0 5.81-2.17 5.81-5.81v-8.38c.01-3.64-2.16-5.81-5.8-5.81zM16 13.509h-3.25v3.25c0 .41-.34.75-.75.75s-.75-.34-.75-.75v-3.25H8c-.41 0-.75-.34-.75-.75s.34-.75.75-.75h3.25v-3.25c0-.41.34-.75.75-.75s.75.34.75.75v3.25H16c.41 0 .75.34.75.75s-.34.75-.75.75z"/></symbol><symbol id="create" viewBox="0 0 24 25"><path fill="none" stroke="#fff" stroke-linecap="round" stroke-linejoin="round" stroke-width="1.5" d="M8 12.759h8m-4 4v-8m-3 14h6c5 0 7-2 7-7v-6c0-5-2-7-7-7H9c-5 0-7 2-7 7v6c0 5 2 7 7 7z"/></symbol><symbol id="heart" viewBox="0 0 24 25"><path fill="none" stroke="#fff" stroke-linecap="round" stroke-linejoin="round" stroke-width="1.5" d="M12.62 21.602c-.34.12-.9.12-1.24 0-2.9-.99-9.38-5.12-9.38-12.12 0-3.09 2.49-5.59 5.56-5.59 1.82 0 3.43.88 4.44 2.24a5.53 5.53 0 0 1 4.44-2.24c3.07 0 5.56 2.5 5.56 5.59 0 7-6.48 11.13-9.38 12.12z"/></symbol><symbol id="download" viewBox="0 0 24 25"><path fill="none" stroke="#fff" stroke-linecap="round" stroke-linejoin="round" stroke-width="1.5" d="M16.44 9.659c3.6.31 5.07 2.16 5.07 6.21v.13c0 4.47-1.79 6.26-6.26 6.26H8.74c-4.47 0-6.26-1.79-6.26-6.26v-.13c0-4.02 1.45-5.87 4.99-6.2M12 2.759v12.88"/><path fill="none" stroke="#fff" stroke-linecap="round" stroke-linejoin="round" stroke-width="1.5" d="M15.35 13.409L12 16.759l-3.35-3.35"/></symbol><symbol id="heart-bold" viewBox="0 0 24 25"><path fill="currentColor" d="M16.44 3.892c-1.81 0-3.43.88-4.44 2.23a5.549 5.549 0 0 0-4.44-2.23c-3.07 0-5.56 2.5-5.56 5.59 0 1.19.19 2.29.52 3.31 1.58 5 6.45 7.99 8.86 8.81.34.12.9.12 1.24 0 2.41-.82 7.28-3.81 8.86-8.81.33-1.02.52-2.12.52-3.31 0-3.09-2.49-5.59-5.56-5.59z"/></symbol><symbol id="left" viewBox="0 0 24 25"><path fill="none" stroke="#fff" stroke-linecap="round" stroke-linejoin="round" stroke-miterlimit="10" stroke-width="1.5" d="M15 20.679l-6.52-6.52c-.77-.77-.77-2.03 0-2.8L15 4.839"/></symbol><symbol id="left-black" viewBox="0 0 24 25"><path fill="none" stroke="#292526" stroke-linecap="round" stroke-linejoin="round" stroke-miterlimit="10" stroke-width="1.5" d="M15 20.679l-6.52-6.52c-.77-.77-.77-2.03 0-2.8L15 4.839"/></symbol><symbol id="home-bold" viewBox="0 0 24 25"><path fill="currentColor" d="M20.04 7.579l-5.76-4.03c-1.57-1.1-3.98-1.04-5.49.13l-5.01 3.91c-1 .78-1.79 2.38-1.79 3.64v6.9c0 2.55 2.07 4.63 4.62 4.63h10.78c2.55 0 4.62-2.07 4.62-4.62v-6.78c0-1.35-.87-3.01-1.97-3.78zm-7.29 11.18c0 .41-.34.75-.75.75s-.75-.34-.75-.75v-3c0-.41.34-.75.75-.75s.75.34.75.75v3z"/></symbol><symbol id="home" viewBox="0 0 24 25"><path fill="none" stroke="#fff" stroke-linecap="round" stroke-linejoin="round" stroke-width="1.5" d="M9.02 3.599l-5.39 4.2c-.9.7-1.63 2.19-1.63 3.32v7.41c0 2.32 1.89 4.22 4.21 4.22h11.58c2.32 0 4.21-1.9 4.21-4.21v-7.28c0-1.21-.81-2.76-1.8-3.45l-6.18-4.33c-1.4-.98-3.65-.93-5 .12zM12 18.749v-3"/></symbol><symbol id="map" viewBox="0 0 24 25"><path fill="none" stroke="#fff" stroke-linecap="round" stroke-linejoin="round" stroke-width="1.5" d="M2.29 8.364v9.73c0 1.9 1.35 2.68 2.99 1.74l2.35-1.34c.51-.29 1.36-.32 1.89-.05l5.25 2.63c.53.26 1.38.24 1.89-.05l4.33-2.48c.55-.32 1.01-1.1 1.01-1.74v-9.73c0-1.9-1.35-2.68-2.99-1.74l-2.35 1.34c-.51.29-1.36.32-1.89.05l-5.25-2.62c-.53-.26-1.38-.24-1.89.05L3.3 6.634c-.56.32-1.01 1.1-1.01 1.73zm6.27-3.78v13m7.17-10.38v13.38"/></symbol><symbol id="map-bold" viewBox="0 0 24 25"><path fill="currentColor" d="M7.63 4.154c.18-.097.37.053.37.257v13.556c0 .224-.152.412-.35.517a1.394 1.394 0 0 0-.02.01l-2.35 1.34c-1.64.94-2.99.16-2.99-1.74v-9.73c0-.63.45-1.41 1.01-1.73l4.33-2.48zm7.092 2.533a.5.5 0 0 1 .278.448v13.153a.5.5 0 0 1-.717.45l-4.25-2.047a.5.5 0 0 1-.283-.45V5.03a.5.5 0 0 1 .722-.449l4.25 2.105zM22 7.074v9.73c0 .63-.45 1.41-1.01 1.73l-3.491 2.001a.5.5 0 0 1-.749-.433V6.915a.5.5 0 0 1 .252-.434l2.008-1.147c1.64-.94 2.99-.16 2.99 1.74z"/></symbol><symbol id="more" viewBox="0 0 24 28"><path fill="currentColor" d="M12 8.759c1.1 0 2-.9 2-2s-.9-2-2-2-2 .9-2 2 .9 2 2 2zm0 2c-1.1 0-2 .9-2 2s.9 2 2 2 2-.9 2-2-.9-2-2-2zm0 6c-1.1 0-2 .9-2 2s.9 2 2 2 2-.9 2-2-.9-2-2-2z"/></symbol><symbol id="more-black" viewBox="0 0 24 28"><path fill="#292526" d="M12 8.759c1.1 0 2-.9 2-2s-.9-2-2-2-2 .9-2 2 .9 2 2 2zm0 2c-1.1 0-2 .9-2 2s.9 2 2 2 2-.9 2-2-.9-2-2-2zm0 6c-1.1 0-2 .9-2 2s.9 2 2 2 2-.9 2-2-.9-2-2-2z"/></symbol><symbol id="gps" viewBox="0 0 24 25"><path fill="none" stroke="#fff" stroke-linecap="round" stroke-linejoin="round" stroke-width="1.5" d="M12 20.259a7.5 7.5 0 1 0 0-15 7.5 7.5 0 0 0 0 15z"/><path fill="none" stroke="#fff" stroke-linecap="round" stroke-linejoin="round" stroke-width="1.5" d="M12 15.759a3 3 0 1 0 0-6 3 3 0 0 0 0 6zm0-11v-2m-8 10H2m10 8v2m8-10h2"/></symbol><symbol id="right" viewBox="0 0 24 25"><path fill="none" stroke="#fff" stroke-linecap="round" stroke-linejoin="round" stroke-miterlimit="10" stroke-width="1.5" d="M8.91 20.679l6.52-6.52c.77-.77.77-2.03 0-2.8l-6.52-6.52"/></symbol><symbol id="search-bold" viewBox="0 0 24 25"><path fill="currentColor" d="M11.5 21.759a9.5 9.5 0 1 0 0-19 9.5 9.5 0 0 0 0 19zm9.8 1c-.18 0-.36-.07-.49-.2l-1.86-1.86a.706.706 0 0 1 0-.99c.27-.27.71-.27.99 0l1.86 1.86c.27.27.27.71 0 .99-.14.13-.32.2-.5.2z"/></symbol><symbol id="save" viewBox="0 0 24 25"><path fill="none" stroke="#fff" stroke-linecap="round" stroke-linejoin="round" stroke-width="1.5" d="M16.97 13.009v4.5c0 3.75-1.5 5.25-5.25 5.25h-4.5c-3.75 0-5.25-1.5-5.25-5.25v-4.5c0-3.75 1.5-5.25 5.25-5.25h4.5c3.75 0 5.25 1.5 5.25 5.25z"/><path fill="none" stroke="#fff" stroke-linecap="round" stroke-linejoin="round" stroke-width="1.5" d="M21.97 6.609v3.3c0 2.75-1.1 3.85-3.85 3.85h-1.15v-.75c0-3.75-1.5-5.25-5.25-5.25h-.75v-1.15c0-2.75 1.1-3.85 3.85-3.85h3.3c2.75 0 3.85 1.1 3.85 3.85z"/></symbol><symbol id="person-bold" viewBox="0 0 24 24"><path fill="currentColor" d="M12 2C9.38 2 7.25 4.13 7.25 6.75c0 2.57 2.01 4.65 4.63 4.74.08-.01.16-.01.22 0h.07a4.738 4.738 0 0 0 4.58-4.74C16.75 4.13 14.62 2 12 2zm5.08 12.15c-2.79-1.86-7.34-1.86-10.15 0-1.27.85-1.97 2-1.97 3.23s.7 2.37 1.96 3.21C8.32 21.53 10.16 22 12 22c1.84 0 3.68-.47 5.08-1.41 1.26-.85 1.96-1.99 1.96-3.23-.01-1.23-.7-2.37-1.96-3.21z"/></symbol><symbol id="search" viewBox="0 0 24 25"><path fill="none" stroke="#fff" stroke-linecap="round" stroke-linejoin="round" stroke-width="1.5" d="M11.5 21.759a9.5 9.5 0 1 0 0-19 9.5 9.5 0 0 0 0 19zm10.5 1l-2-2"/></symbol><symbol id="person" viewBox="0 0 24 25"><path fill="none" stroke="#fff" stroke-linecap="round" stroke-linejoin="round" stroke-width="1.5" d="M12.16 10.932c-.1-.01-.22-.01-.33 0a4.42 4.42 0 0 1-4.27-4.43c0-2.45 1.98-4.44 4.44-4.44a4.435 4.435 0 1 1 .16 8.87zm-5 3.69c-2.42 1.62-2.42 4.26 0 5.87 2.75 1.84 7.26 1.84 10.01 0 2.42-1.62 2.42-4.26 0-5.87-2.74-1.83-7.25-1.83-10.01 0z"/></symbol><symbol id="setting-bold" viewBox="0 0 24 25"><path fill="currentColor" d="M20.1 9.979c-1.81 0-2.55-1.28-1.65-2.85.52-.91.21-2.07-.7-2.59l-1.73-.99c-.79-.47-1.81-.19-2.28.6l-.11.19c-.9 1.57-2.38 1.57-3.29 0l-.11-.19a1.641 1.641 0 0 0-2.26-.6l-1.73.99c-.91.52-1.22 1.69-.7 2.6.91 1.56.17 2.84-1.64 2.84-1.04 0-1.9.85-1.9 1.9v1.76c0 1.04.85 1.9 1.9 1.9 1.81 0 2.55 1.28 1.64 2.85-.52.91-.21 2.07.7 2.59l1.73.99c.79.47 1.81.19 2.28-.6l.11-.19c.9-1.57 2.38-1.57 3.29 0l.11.19c.47.79 1.49 1.07 2.28.6l1.73-.99c.91-.52 1.22-1.69.7-2.59-.91-1.57-.17-2.85 1.64-2.85 1.04 0 1.9-.85 1.9-1.9v-1.76a1.92 1.92 0 0 0-1.91-1.9zm-8.1 6.03c-1.79 0-3.25-1.46-3.25-3.25s1.46-3.25 3.25-3.25 3.25 1.46 3.25 3.25-1.46 3.25-3.25 3.25z"/></symbol><symbol id="setting" viewBox="0 0 24 25"><path fill="none" stroke="#fff" stroke-linecap="round" stroke-linejoin="round" stroke-miterlimit="10" stroke-width="1.5" d="M12 15.759a3 3 0 1 0 0-6 3 3 0 0 0 0 6z"/><path fill="none" stroke="#fff" stroke-linecap="round" stroke-linejoin="round" stroke-miterlimit="10" stroke-width="1.5" d="M2 13.639v-1.76c0-1.04.85-1.9 1.9-1.9 1.81 0 2.55-1.28 1.64-2.85-.52-.9-.21-2.07.7-2.59l1.73-.99c.79-.47 1.81-.19 2.28.6l.11.19c.9 1.57 2.38 1.57 3.29 0l.11-.19c.47-.79 1.49-1.07 2.28-.6l1.73.99c.91.52 1.22 1.69.7 2.59-.91 1.57-.17 2.85 1.64 2.85 1.04 0 1.9.85 1.9 1.9v1.76c0 1.04-.85 1.9-1.9 1.9-1.81 0-2.55 1.28-1.64 2.85.52.91.21 2.07-.7 2.59l-1.73.99c-.79.47-1.81.19-2.28-.6l-.11-.19c-.9-1.57-2.38-1.57-3.29 0l-.11.19c-.47.79-1.49 1.07-2.28.6l-1.73-.99a1.899 1.899 0 0 1-.7-2.59c.91-1.57.17-2.85-1.64-2.85-1.05 0-1.9-.86-1.9-1.9z"/></symbol><symbol id="write" viewBox="0 0 24 25"><path fill="none" stroke="#fff" stroke-linecap="round" stroke-linejoin="round" stroke-miterlimit="10" stroke-width="1.5" d="M13.26 4.359l-8.21 8.69c-.31.33-.61.98-.67 1.43l-.37 3.24c-.13 1.17.71 1.97 1.87 1.77l3.22-.55c.45-.08 1.08-.41 1.39-.75l8.21-8.69c1.42-1.5 2.06-3.21-.15-5.3-2.2-2.07-3.87-1.34-5.29.16zm-1.37 1.45a6.126 6.126 0 0 0 5.45 5.15M3 22.759h18"/></symbol><symbol id="trash" viewBox="0 0 24 25"><path fill="none" stroke="#fff" stroke-linecap="round" stroke-linejoin="round" stroke-width="1.5" d="M21 6.739c-3.33-.33-6.68-.5-10.02-.5-1.98 0-3.96.1-5.94.3l-2.04.2m5.5-1.01l.22-1.31c.16-.95.28-1.66 1.97-1.66h2.62c1.69 0 1.82.75 1.97 1.67l.22 1.3m3.35 4.17l-.65 10.07c-.11 1.57-.2 2.79-2.99 2.79H8.79c-2.79 0-2.88-1.22-2.99-2.79l-.65-10.07m5.18 7.36h3.33m-4.16-4h5"/></symbol><symbol id="write-bold" viewBox="0 0 24 25"><path fill="currentColor" d="M21 22.759H3c-.41 0-.75-.34-.75-.75s.34-.75.75-.75h18c.41 0 .75.34.75.75s-.34.75-.75.75zm-1.98-18.52c-1.94-1.94-3.84-1.99-5.83 0l-1.21 1.21c-.1.1-.14.26-.1.4a8.129 8.129 0 0 0 5.53 5.53.4.4 0 0 0 .41-.1l1.2-1.21c.99-.98 1.47-1.93 1.47-2.89.01-.99-.47-1.95-1.47-2.94zm-3.41 8.05c-.29-.14-.57-.28-.84-.44a8.8 8.8 0 0 1-.64-.42c-.17-.11-.37-.27-.56-.43a1.22 1.22 0 0 1-.17-.15c-.33-.28-.7-.64-1.03-1.04-.03-.02-.08-.09-.15-.18-.1-.12-.27-.32-.42-.55a5.49 5.49 0 0 1-.39-.59c-.16-.27-.3-.54-.44-.82a7.528 7.528 0 0 1-.062-.135c-.147-.334-.582-.431-.84-.173L4.34 13.089c-.13.13-.25.38-.28.55l-.54 3.83c-.1.68.09 1.32.51 1.75.36.35.86.54 1.4.54.12 0 .24-.01.36-.03l3.84-.54c.18-.03.43-.15.55-.28l5.721-5.721c.26-.26.162-.705-.176-.85a18.273 18.273 0 0 1-.115-.049z"/></symbol><symbol id="trash-bold" viewBox="0 0 24 25"><path fill="currentColor" d="M21.07 5.989c-1.61-.16-3.22-.28-4.84-.37v-.01l-.22-1.3c-.15-.92-.37-2.3-2.71-2.3h-2.62c-2.33 0-2.55 1.32-2.71 2.29l-.21 1.28c-.93.06-1.86.12-2.79.21l-2.04.2c-.42.04-.72.41-.68.82.04.41.4.71.82.67l2.04-.2c5.24-.52 10.52-.32 15.82.21h.08c.38 0 .71-.29.75-.68a.766.766 0 0 0-.69-.82zm-1.84 2.91c-.24-.25-.57-.39-.91-.39H5.68c-.34 0-.68.14-.91.39-.23.25-.36.59-.34.94l.62 10.26c.11 1.52.25 3.42 3.74 3.42h6.42c3.49 0 3.63-1.89 3.74-3.42l.62-10.25c.02-.36-.11-.7-.34-.95zm-5.57 9.61h-3.33c-.41 0-.75-.34-.75-.75s.34-.75.75-.75h3.33c.41 0 .75.34.75.75s-.34.75-.75.75zm.84-4h-5c-.41 0-.75-.34-.75-.75s.34-.75.75-.75h5c.41 0 .75.34.75.75s-.34.75-.75.75z"/></symbol></svg>